<svg width="464" height="151" viewBox="0 0 464 151" fill="none" xmlns="http://www.w3.org/2000/svg">
<rect y="27" width="102" height="95" rx="13" fill="#5352ED"/>
<path d="M146 51L129 73.5455L146 99" stroke="#5352ED" stroke-width="2" stroke-linecap="square" stroke-linejoin="round"/>
<path d="M447 51L463 74.0152L447 100" stroke="#5352ED" stroke-width="2" stroke-linecap="square" stroke-linejoin="round"/>
<path d="M37.72 42.952H53.464C59.864 42.952 64.408 43.784 67.096 45.448C69.848 47.112 71.608 50.12 72.376 54.472C73.208 58.76 73.624 65.928 73.624 75.976C73.624 86.024 73.208 93.224 72.376 97.576C71.608 101.864 69.848 104.84 67.096 106.504C64.408 108.168 59.864 109 53.464 109H37.72V42.952ZM53.176 102.664C57.592 102.664 60.6 102.216 62.2 101.32C63.864 100.36 64.984 98.152 65.56 94.696C66.136 91.24 66.424 85 66.424 75.976C66.424 67.016 66.136 60.808 65.56 57.352C64.984 53.832 63.864 51.624 62.2 50.728C60.536 49.768 57.528 49.288 53.176 49.288H44.824V102.664H53.176Z" fill="white"/>
<path d="M157.172 54.032H168.518C172.829 54.032 175.899 54.642 177.729 55.862C179.6 57.0413 180.759 58.973 181.206 61.657C181.653 64.3003 181.877 68.7533 181.877 75.016C181.877 81.2787 181.653 85.752 181.206 88.436C180.759 91.0793 179.6 93.011 177.729 94.231C175.899 95.4103 172.829 96 168.518 96H157.172V54.032ZM168.396 88.619C170.185 88.619 171.385 88.4157 171.995 88.009C172.646 87.5617 173.052 86.484 173.215 84.776C173.418 83.068 173.52 79.8147 173.52 75.016C173.52 70.258 173.418 67.025 173.215 65.317C173.012 63.5683 172.605 62.4907 171.995 62.084C171.385 61.6367 170.185 61.413 168.396 61.413H165.529V88.619H168.396ZM187.434 96V54.032H207.808V61.413H195.852V71.112H206.161V78.493H195.852V88.619H207.808V96H187.434ZM218.599 96L210.547 54.032H219.087L224.577 87.216H225.126L230.433 54.032H238.851L230.799 96H218.599Z" fill="white"/>
<path d="M282.042 96V65.073H281.676L275.637 96H267.89L261.973 65.073H261.485V96H253.616V54.032H266.304L271.794 83.068H272.221L277.65 54.032H290.155V96H282.042ZM308.768 96.488C304.539 96.488 301.529 95.878 299.74 94.658C297.951 93.3973 296.832 91.4047 296.385 88.68C295.938 85.9147 295.714 81.36 295.714 75.016C295.714 68.6313 295.938 64.0767 296.385 61.352C296.832 58.6273 297.951 56.655 299.74 55.435C301.529 54.1743 304.539 53.544 308.768 53.544C312.997 53.544 316.007 54.1743 317.796 55.435C319.585 56.655 320.704 58.6273 321.151 61.352C321.598 64.0767 321.822 68.6313 321.822 75.016C321.822 81.36 321.598 85.9147 321.151 88.68C320.704 91.4047 319.585 93.3973 317.796 94.658C316.007 95.878 312.997 96.488 308.768 96.488ZM308.768 89.107C310.395 89.107 311.493 88.8833 312.062 88.436C312.631 87.9887 312.997 86.8907 313.16 85.142C313.323 83.3933 313.404 80.018 313.404 75.016C313.404 70.014 313.323 66.6387 313.16 64.89C312.997 63.1413 312.631 62.0433 312.062 61.596C311.493 61.1487 310.395 60.925 308.768 60.925C307.141 60.925 306.043 61.1487 305.474 61.596C304.905 62.0433 304.539 63.1413 304.376 64.89C304.213 66.6387 304.132 70.014 304.132 75.016C304.132 80.018 304.213 83.3933 304.376 85.142C304.539 86.8907 304.905 87.9887 305.474 88.436C306.043 88.8833 307.141 89.107 308.768 89.107ZM345.359 96L335.599 73.003H335.355V96H327.364V54.032H335.477L344.566 75.26H344.871V54.032H352.923V96H345.359ZM359.294 96V54.032H379.668V61.413H367.712V71.112H378.021V78.493H367.712V88.619H379.668V96H359.294ZM391.74 96V81.482L381.797 54.032H390.398L395.888 72.149H396.437L401.744 54.032H410.04L400.097 81.482V96H391.74Z" fill="#5352ED"/>
<path d="M418.088 100.59L417.678 101.503L419.503 102.322L419.912 101.41L418.088 100.59ZM441.912 52.4096C442.138 51.9058 441.913 51.3139 441.41 51.0877C440.906 50.8615 440.314 51.0866 440.088 51.5904L441.912 52.4096ZM419.912 101.41L441.912 52.4096L440.088 51.5904L418.088 100.59L419.912 101.41Z" fill="#5352ED"/>
</svg>
